<svg xmlns="http://www.w3.org/2000/svg" xmlns:xlink="http://www.w3.org/1999/xlink" width="500" zoomAndPan="magnify" viewBox="0 0 375 374.999991" height="500" preserveAspectRatio="xMidYMid meet" version="1.0"><defs><g/><clipPath id="c2c3d8c772"><path d="M 148 123.207031 L 227 123.207031 L 227 204.957031 L 148 204.957031 Z M 148 123.207031 " clip-rule="nonzero"/></clipPath></defs><g fill="#000000" fill-opacity="1"><g transform="translate(146.845352, 198.776674)"><g><path d="M -5.46875 -0.4375 L -11.234375 0.21875 L -11.625 -0.359375 L -5.125 -1.0625 L -2.15625 -3.125 L -1.78125 -2.5625 L -4.703125 -0.53125 L -7.6875 5.328125 L -8.109375 4.71875 Z M -5.46875 -0.4375 "/></g></g></g><g fill="#000000" fill-opacity="1"><g transform="translate(141.03268, 189.976174)"><g><path d="M -7.71875 -6.828125 C -6.34375 -7.367188 -5.117188 -7.453125 -4.046875 -7.078125 C -2.972656 -6.710938 -2.195312 -5.921875 -1.71875 -4.703125 C -1.238281 -3.484375 -1.265625 -2.367188 -1.796875 -1.359375 C -2.328125 -0.359375 -3.285156 0.410156 -4.671875 0.953125 C -6.054688 1.503906 -7.285156 1.585938 -8.359375 1.203125 C -9.429688 0.816406 -10.207031 0.0195312 -10.6875 -1.1875 C -11.164062 -2.40625 -11.132812 -3.515625 -10.59375 -4.515625 C -10.0625 -5.515625 -9.101562 -6.285156 -7.71875 -6.828125 Z M -4.921875 0.296875 C -3.679688 -0.191406 -2.828125 -0.847656 -2.359375 -1.671875 C -1.898438 -2.503906 -1.875 -3.441406 -2.28125 -4.484375 C -2.695312 -5.535156 -3.347656 -6.203125 -4.234375 -6.484375 C -5.128906 -6.773438 -6.207031 -6.671875 -7.46875 -6.171875 C -8.726562 -5.671875 -9.582031 -5.015625 -10.03125 -4.203125 C -10.488281 -3.390625 -10.515625 -2.460938 -10.109375 -1.421875 C -9.691406 -0.378906 -9.035156 0.285156 -8.140625 0.578125 C -7.242188 0.878906 -6.171875 0.785156 -4.921875 0.296875 Z M -4.921875 0.296875 "/></g></g></g><g fill="#000000" fill-opacity="1"><g transform="translate(136.528215, 177.226045)"><g><path d="M -5.296875 -4.390625 L -5.703125 -7.8125 L -1.46875 -8.328125 C -0.976562 -7.484375 -0.664062 -6.5 -0.53125 -5.375 C -0.351562 -3.90625 -0.628906 -2.734375 -1.359375 -1.859375 C -2.085938 -0.984375 -3.210938 -0.453125 -4.734375 -0.265625 C -5.671875 -0.148438 -6.523438 -0.238281 -7.296875 -0.53125 C -8.078125 -0.832031 -8.710938 -1.316406 -9.203125 -1.984375 C -9.691406 -2.660156 -9.992188 -3.460938 -10.109375 -4.390625 C -10.234375 -5.410156 -10.160156 -6.347656 -9.890625 -7.203125 L -9.28125 -7 C -9.550781 -6.15625 -9.632812 -5.300781 -9.53125 -4.4375 C -9.382812 -3.207031 -8.882812 -2.28125 -8.03125 -1.65625 C -7.1875 -1.03125 -6.125 -0.796875 -4.84375 -0.953125 C -3.445312 -1.117188 -2.4375 -1.582031 -1.8125 -2.34375 C -1.195312 -3.113281 -0.96875 -4.160156 -1.125 -5.484375 C -1.226562 -6.347656 -1.4375 -7.066406 -1.75 -7.640625 L -5.015625 -7.234375 L -4.6875 -4.46875 Z M -5.296875 -4.390625 "/></g></g></g><g fill="#000000" fill-opacity="1"><g transform="translate(135.460128, 164.20384)"><g><path d="M -2.625 -6.171875 L -3.046875 -2.390625 L 0.078125 -0.71875 L 0 0 L -8.90625 -4.796875 L -8.859375 -5.21875 L 0.890625 -7.8125 L 0.8125 -7.078125 Z M -3.609375 -2.6875 L -3.21875 -6.015625 L -6.71875 -5.140625 C -7 -5.066406 -7.378906 -4.976562 -7.859375 -4.875 C -7.472656 -4.707031 -7.117188 -4.546875 -6.796875 -4.390625 Z M -3.609375 -2.6875 "/></g></g></g><g fill="#000000" fill-opacity="1"><g transform="translate(137.351075, 152.642372)"><g><path d="M -0.921875 -2.25 L -0.765625 -2.28125 C 0.222656 -1.644531 1.09375 -0.992188 1.84375 -0.328125 L 1.734375 0.0625 C 0.703125 -0.582031 -0.253906 -1.113281 -1.140625 -1.53125 Z M -0.921875 -2.25 "/></g></g></g><g fill="#000000" fill-opacity="1"><g transform="translate(139.563619, 146.134214)"><g/></g></g><g fill="#000000" fill-opacity="1"><g transform="translate(142.747273, 139.579174)"><g><path d="M 1.6875 -6.703125 C 2.332031 -6.265625 2.679688 -5.675781 2.734375 -4.9375 C 2.785156 -4.207031 2.539062 -3.453125 2 -2.671875 C 1.351562 -1.734375 0.753906 -1.082031 0.203125 -0.71875 L -0.34375 -1.09375 C 0.269531 -1.488281 0.878906 -2.117188 1.484375 -2.984375 C 1.910156 -3.609375 2.101562 -4.207031 2.0625 -4.78125 C 2.03125 -5.363281 1.78125 -5.816406 1.3125 -6.140625 C 1.019531 -6.335938 0.738281 -6.4375 0.46875 -6.4375 C 0.195312 -6.445312 -0.113281 -6.363281 -0.46875 -6.1875 C -0.820312 -6.019531 -1.273438 -5.738281 -1.828125 -5.34375 C -2.628906 -4.726562 -3.289062 -4.378906 -3.8125 -4.296875 C -4.34375 -4.222656 -4.875 -4.367188 -5.40625 -4.734375 C -5.976562 -5.128906 -6.289062 -5.675781 -6.34375 -6.375 C -6.394531 -7.070312 -6.175781 -7.773438 -5.6875 -8.484375 C -5.195312 -9.210938 -4.59375 -9.800781 -3.875 -10.25 L -3.546875 -9.71875 C -4.242188 -9.269531 -4.796875 -8.753906 -5.203125 -8.171875 C -5.597656 -7.597656 -5.773438 -7.050781 -5.734375 -6.53125 C -5.703125 -6.019531 -5.460938 -5.609375 -5.015625 -5.296875 C -4.722656 -5.097656 -4.453125 -4.988281 -4.203125 -4.96875 C -3.953125 -4.945312 -3.671875 -5.003906 -3.359375 -5.140625 C -3.054688 -5.273438 -2.601562 -5.554688 -2 -5.984375 C -1.375 -6.453125 -0.859375 -6.765625 -0.453125 -6.921875 C -0.0546875 -7.085938 0.304688 -7.15625 0.640625 -7.125 C 0.984375 -7.09375 1.332031 -6.953125 1.6875 -6.703125 Z M 1.6875 -6.703125 "/></g></g></g><g fill="#000000" fill-opacity="1"><g transform="translate(149.235723, 130.857199)"><g><path d="M 2.71875 -2.59375 L 2.25 -2.140625 L -3.796875 -8.46875 L -6 -6.375 L -6.40625 -6.8125 L -1.53125 -11.453125 L -1.125 -11.015625 L -3.328125 -8.921875 Z M 2.71875 -2.59375 "/></g></g></g><g fill="#000000" fill-opacity="1"><g transform="translate(157.119288, 123.812813)"><g><path d="M -0.453125 -4.5 L 1.6875 -1.03125 L 1.125 -0.6875 L -3.765625 -8.671875 L -1.875 -9.84375 C -0.875 -10.445312 -0.03125 -10.710938 0.65625 -10.640625 C 1.351562 -10.566406 1.925781 -10.160156 2.375 -9.421875 C 2.695312 -8.890625 2.832031 -8.351562 2.78125 -7.8125 C 2.738281 -7.269531 2.472656 -6.742188 1.984375 -6.234375 L 6.390625 -3.921875 L 5.71875 -3.515625 L 1.515625 -5.71875 Z M -0.734375 -4.984375 L 0.78125 -5.921875 C 1.457031 -6.335938 1.882812 -6.804688 2.0625 -7.328125 C 2.25 -7.859375 2.164062 -8.414062 1.8125 -9 C 1.4375 -9.601562 0.984375 -9.929688 0.453125 -9.984375 C -0.078125 -10.035156 -0.75 -9.8125 -1.5625 -9.3125 L -2.890625 -8.5 Z M -0.734375 -4.984375 "/></g></g></g><g fill="#000000" fill-opacity="1"><g transform="translate(167.113529, 118.177299)"><g><path d="M 6.078125 -2.125 L 1.25 -0.4375 L -1.828125 -9.28125 L 3 -10.96875 L 3.1875 -10.390625 L -1.015625 -8.921875 L 0.15625 -5.578125 L 4.125 -6.96875 L 4.328125 -6.40625 L 0.359375 -5.015625 L 1.671875 -1.234375 L 5.875 -2.703125 Z M 6.078125 -2.125 "/></g></g></g><g fill="#000000" fill-opacity="1"><g transform="translate(177.582679, 114.950945)"><g><path d="M 3.734375 -0.484375 L 3.078125 -0.40625 L 1.953125 -9.078125 L -1.0625 -8.6875 L -1.140625 -9.296875 L 5.53125 -10.15625 L 5.609375 -9.546875 L 2.609375 -9.15625 Z M 3.734375 -0.484375 "/></g></g></g><g fill="#000000" fill-opacity="1"><g transform="translate(188.092044, 113.915396)"><g><path d="M 6.046875 -8.421875 C 4.878906 -8.523438 3.925781 -8.226562 3.1875 -7.53125 C 2.457031 -6.84375 2.039062 -5.847656 1.9375 -4.546875 C 1.820312 -3.210938 2.046875 -2.148438 2.609375 -1.359375 C 3.179688 -0.566406 4.0625 -0.125 5.25 -0.03125 C 6.03125 0.0390625 6.75 0 7.40625 -0.15625 L 7.359375 0.421875 C 6.734375 0.585938 5.957031 0.632812 5.03125 0.5625 C 3.71875 0.445312 2.722656 -0.0625 2.046875 -0.96875 C 1.367188 -1.875 1.097656 -3.085938 1.234375 -4.609375 C 1.304688 -5.554688 1.550781 -6.378906 1.96875 -7.078125 C 2.394531 -7.773438 2.960938 -8.289062 3.671875 -8.625 C 4.378906 -8.96875 5.179688 -9.097656 6.078125 -9.015625 C 6.984375 -8.941406 7.78125 -8.703125 8.46875 -8.296875 L 8.15625 -7.71875 C 7.507812 -8.125 6.804688 -8.359375 6.046875 -8.421875 Z M 6.046875 -8.421875 "/></g></g></g><g fill="#000000" fill-opacity="1"><g transform="translate(199.747039, 115.261202)"><g><path d="M 7.6875 2.5625 L 7.0625 2.359375 L 8.515625 -2.015625 L 3.328125 -3.75 L 1.875 0.625 L 1.265625 0.421875 L 4.234375 -8.453125 L 4.84375 -8.25 L 3.515625 -4.3125 L 8.703125 -2.578125 L 10.03125 -6.515625 L 10.65625 -6.3125 Z M 7.6875 2.5625 "/></g></g></g><g fill="#000000" fill-opacity="1"><g transform="translate(212.045895, 120.076258)"><g><path d="M 2.390625 -0.40625 L 2.40625 -0.25 C 1.5625 0.582031 0.726562 1.289062 -0.09375 1.875 L -0.453125 1.6875 C 0.398438 0.820312 1.132812 0.00390625 1.75 -0.765625 Z M 2.390625 -0.40625 "/></g></g></g><g fill="#000000" fill-opacity="1"><g transform="translate(217.905288, 123.669216)"><g/></g></g><g fill="#000000" fill-opacity="1"><g transform="translate(223.596117, 128.183222)"><g><path d="M 4.359375 -1.28125 L 1.34375 1.46875 L 0.890625 0.984375 L 7.796875 -5.328125 L 9.296875 -3.6875 C 10.085938 -2.832031 10.507812 -2.054688 10.5625 -1.359375 C 10.625 -0.660156 10.335938 -0.0195312 9.703125 0.5625 C 9.234375 0.988281 8.726562 1.222656 8.1875 1.265625 C 7.65625 1.316406 7.09375 1.15625 6.5 0.78125 L 5.0625 5.546875 L 4.53125 4.96875 L 5.90625 0.421875 Z M 4.765625 -1.65625 L 5.953125 -0.34375 C 6.492188 0.238281 7.039062 0.566406 7.59375 0.640625 C 8.15625 0.722656 8.6875 0.53125 9.1875 0.0625 C 9.71875 -0.40625 9.953125 -0.90625 9.890625 -1.4375 C 9.835938 -1.96875 9.488281 -2.585938 8.84375 -3.296875 L 7.8125 -4.4375 Z M 4.765625 -1.65625 "/></g></g></g><g fill="#000000" fill-opacity="1"><g transform="translate(231.01015, 136.940572)"><g><path d="M 3.234375 5.5625 L 0.671875 1.15625 L 8.765625 -3.53125 L 11.328125 0.875 L 10.8125 1.171875 L 8.578125 -2.671875 L 5.515625 -0.890625 L 7.625 2.75 L 7.09375 3.046875 L 4.984375 -0.59375 L 1.53125 1.40625 L 3.765625 5.25 Z M 3.234375 5.5625 "/></g></g></g><g fill="#000000" fill-opacity="1"><g transform="translate(236.175009, 146.547465)"><g><path d="M 10.09375 2.359375 C 9.738281 1.242188 9.101562 0.476562 8.1875 0.0625 C 7.269531 -0.351562 6.1875 -0.363281 4.9375 0.03125 C 3.664062 0.4375 2.773438 1.054688 2.265625 1.890625 C 1.753906 2.722656 1.675781 3.703125 2.03125 4.828125 C 2.269531 5.578125 2.585938 6.234375 2.984375 6.796875 L 2.421875 6.96875 C 2.023438 6.445312 1.6875 5.742188 1.40625 4.859375 C 1.007812 3.609375 1.101562 2.492188 1.6875 1.515625 C 2.269531 0.546875 3.285156 -0.164062 4.734375 -0.625 C 5.640625 -0.914062 6.492188 -1 7.296875 -0.875 C 8.097656 -0.757812 8.785156 -0.441406 9.359375 0.078125 C 9.941406 0.609375 10.367188 1.300781 10.640625 2.15625 C 10.921875 3.03125 11.007812 3.863281 10.90625 4.65625 L 10.265625 4.578125 C 10.378906 3.828125 10.320312 3.085938 10.09375 2.359375 Z M 10.09375 2.359375 "/></g></g></g><g fill="#000000" fill-opacity="1"><g transform="translate(239.415448, 157.803069)"><g><path d="M 5.265625 8.859375 C 3.796875 8.960938 2.601562 8.671875 1.6875 7.984375 C 0.78125 7.304688 0.285156 6.3125 0.203125 5 C 0.117188 3.707031 0.484375 2.660156 1.296875 1.859375 C 2.109375 1.066406 3.253906 0.617188 4.734375 0.515625 C 6.222656 0.421875 7.421875 0.71875 8.328125 1.40625 C 9.234375 2.101562 9.726562 3.09375 9.8125 4.375 C 9.894531 5.6875 9.53125 6.738281 8.71875 7.53125 C 7.90625 8.320312 6.753906 8.765625 5.265625 8.859375 Z M 4.765625 1.21875 C 3.441406 1.3125 2.429688 1.679688 1.734375 2.328125 C 1.046875 2.972656 0.738281 3.847656 0.8125 4.953125 C 0.882812 6.085938 1.300781 6.925781 2.0625 7.46875 C 2.832031 8.019531 3.890625 8.25 5.234375 8.15625 C 6.585938 8.070312 7.601562 7.707031 8.28125 7.0625 C 8.957031 6.425781 9.257812 5.546875 9.1875 4.421875 C 9.113281 3.316406 8.691406 2.484375 7.921875 1.921875 C 7.160156 1.367188 6.109375 1.132812 4.765625 1.21875 Z M 4.765625 1.21875 "/></g></g></g><g fill="#000000" fill-opacity="1"><g transform="translate(239.736194, 171.38573)"><g><path d="M 8.046875 8.359375 L 7.921875 9.046875 L -0.6875 4 L -0.59375 3.4375 L 9.21875 1.59375 L 9.09375 2.28125 L 2.421875 3.515625 C 1.421875 3.710938 0.671875 3.828125 0.171875 3.859375 C 0.472656 3.992188 0.929688 4.242188 1.546875 4.609375 Z M 8.046875 8.359375 "/></g></g></g><g fill="#000000" fill-opacity="1"><g transform="translate(237.405694, 182.405697)"><g><path d="M -2.40625 5.96875 L -0.5 1.234375 L 8.171875 4.75 L 6.265625 9.484375 L 5.703125 9.25 L 7.359375 5.125 L 4.09375 3.796875 L 2.53125 7.6875 L 1.953125 7.46875 L 3.515625 3.578125 L -0.1875 2.078125 L -1.84375 6.203125 Z M -2.40625 5.96875 "/></g></g></g><g fill="#000000" fill-opacity="1"><g transform="translate(232.978963, 192.385113)"><g><path d="M 2.25 3.9375 L -1.125 1.640625 L -0.75 1.09375 L 6.984375 6.375 L 5.734375 8.21875 C 5.078125 9.175781 4.414062 9.757812 3.75 9.96875 C 3.082031 10.1875 2.390625 10.054688 1.671875 9.578125 C 1.160156 9.222656 0.816406 8.785156 0.640625 8.265625 C 0.472656 7.753906 0.5 7.164062 0.71875 6.5 L -4.234375 6.1875 L -3.78125 5.546875 L 0.953125 5.84375 Z M 2.703125 4.25 L 1.703125 5.71875 C 1.253906 6.375 1.054688 6.976562 1.109375 7.53125 C 1.160156 8.09375 1.472656 8.566406 2.046875 8.953125 C 2.628906 9.347656 3.171875 9.460938 3.671875 9.296875 C 4.179688 9.128906 4.707031 8.648438 5.25 7.859375 L 6.109375 6.578125 Z M 2.703125 4.25 "/></g></g></g><g clip-path="url(#c2c3d8c772)"><path fill="#000000" d="M 187.441406 161.132812 C 186.480469 161.132812 185.523438 161.214844 184.574219 161.378906 C 183.625 161.539062 182.695312 161.78125 181.789062 162.105469 C 180.878906 162.425781 180.003906 162.820312 179.164062 163.292969 C 178.320312 163.761719 177.527344 164.300781 176.777344 164.90625 C 176.027344 165.511719 175.332031 166.175781 174.695312 166.902344 C 174.054688 167.625 173.484375 168.398438 172.976562 169.21875 C 172.46875 170.042969 172.03125 170.898438 171.671875 171.796875 C 171.308594 172.691406 171.023438 173.609375 170.816406 174.554688 C 170.609375 175.5 170.484375 176.453125 170.4375 177.417969 C 170.394531 178.386719 170.429688 179.347656 170.546875 180.308594 C 170.664062 181.265625 170.859375 182.210938 171.136719 183.136719 C 171.414062 184.0625 171.765625 184.957031 172.191406 185.824219 C 172.621094 186.6875 173.117188 187.511719 173.683594 188.292969 C 174.25 189.074219 174.878906 189.804688 175.570312 190.476562 C 176.257812 191.152344 177 191.761719 177.792969 192.3125 C 178.585938 192.859375 179.421875 193.335938 180.296875 193.742188 C 179.65625 193.246094 179.074219 192.6875 178.546875 192.070312 C 178.023438 191.453125 177.566406 190.785156 177.179688 190.074219 C 176.792969 189.359375 176.484375 188.613281 176.25 187.835938 C 176.015625 187.058594 175.867188 186.265625 175.796875 185.457031 C 175.730469 184.648438 175.742188 183.839844 175.84375 183.03125 C 175.941406 182.226562 176.121094 181.441406 176.382812 180.671875 C 176.644531 179.902344 176.980469 179.167969 177.394531 178.46875 C 177.808594 177.773438 178.289062 177.125 178.835938 176.527344 C 179.382812 175.925781 179.984375 175.390625 180.644531 174.917969 C 181.300781 174.449219 182 174.046875 182.742188 173.722656 C 183.480469 173.394531 184.25 173.148438 185.039062 172.980469 C 185.832031 172.8125 186.632812 172.730469 187.441406 172.730469 C 188.25 172.730469 189.050781 172.8125 189.84375 172.980469 C 190.636719 173.148438 191.402344 173.394531 192.140625 173.722656 C 192.882812 174.046875 193.582031 174.449219 194.242188 174.917969 C 194.898438 175.390625 195.5 175.925781 196.046875 176.527344 C 196.597656 177.125 197.078125 177.773438 197.488281 178.46875 C 197.902344 179.167969 198.238281 179.902344 198.5 180.671875 C 198.761719 181.441406 198.941406 182.226562 199.042969 183.03125 C 199.140625 183.839844 199.15625 184.648438 199.085938 185.457031 C 199.015625 186.265625 198.867188 187.058594 198.632812 187.835938 C 198.402344 188.613281 198.089844 189.359375 197.703125 190.074219 C 197.316406 190.785156 196.859375 191.453125 196.335938 192.070312 C 195.8125 192.6875 195.226562 193.246094 194.589844 193.742188 C 195.460938 193.335938 196.296875 192.859375 197.089844 192.3125 C 197.882812 191.765625 198.625 191.152344 199.316406 190.480469 C 200.007812 189.804688 200.636719 189.078125 201.203125 188.296875 C 201.769531 187.515625 202.269531 186.691406 202.695312 185.824219 C 203.125 184.957031 203.476562 184.0625 203.753906 183.136719 C 204.03125 182.210938 204.226562 181.265625 204.34375 180.308594 C 204.460938 179.347656 204.496094 178.382812 204.453125 177.417969 C 204.40625 176.453125 204.28125 175.496094 204.074219 174.554688 C 203.867188 173.609375 203.582031 172.6875 203.21875 171.792969 C 202.855469 170.898438 202.421875 170.039062 201.914062 169.21875 C 201.40625 168.394531 200.832031 167.621094 200.195312 166.898438 C 199.554688 166.175781 198.863281 165.507812 198.109375 164.902344 C 197.359375 164.296875 196.5625 163.757812 195.722656 163.289062 C 194.882812 162.820312 194.007812 162.421875 193.097656 162.101562 C 192.1875 161.78125 191.261719 161.539062 190.3125 161.375 C 189.359375 161.214844 188.40625 161.132812 187.441406 161.132812 Z M 187.441406 173.605469 C 188.152344 173.605469 188.855469 173.675781 189.550781 173.816406 C 190.25 173.953125 190.925781 174.160156 191.582031 174.433594 C 192.238281 174.707031 192.859375 175.039062 193.449219 175.4375 C 194.042969 175.832031 194.589844 176.28125 195.089844 176.785156 C 195.59375 177.289062 196.039062 177.839844 196.4375 178.429688 C 196.832031 179.023438 197.164062 179.648438 197.433594 180.308594 C 197.707031 180.96875 197.914062 181.644531 198.050781 182.34375 C 198.1875 183.042969 198.257812 183.75 198.257812 184.464844 C 198.257812 185.175781 198.1875 185.882812 198.050781 186.582031 C 197.914062 187.28125 197.707031 187.957031 197.4375 188.617188 C 197.164062 189.277344 196.832031 189.902344 196.4375 190.496094 C 196.042969 191.085938 195.59375 191.636719 195.089844 192.140625 C 194.589844 192.644531 194.042969 193.09375 193.453125 193.488281 C 192.863281 193.886719 192.238281 194.21875 191.582031 194.492188 C 190.925781 194.765625 190.25 194.972656 189.554688 195.109375 C 188.855469 195.25 188.152344 195.320312 187.441406 195.320312 C 186.734375 195.320312 186.03125 195.25 185.332031 195.109375 C 184.636719 194.972656 183.960938 194.765625 183.304688 194.492188 C 182.648438 194.21875 182.023438 193.886719 181.433594 193.488281 C 180.84375 193.09375 180.296875 192.644531 179.796875 192.140625 C 179.292969 191.636719 178.84375 191.085938 178.449219 190.492188 C 178.054688 189.902344 177.722656 189.277344 177.453125 188.617188 C 177.179688 187.957031 176.972656 187.277344 176.835938 186.578125 C 176.699219 185.878906 176.628906 185.175781 176.628906 184.460938 C 176.628906 183.75 176.695312 183.042969 176.835938 182.34375 C 176.972656 181.644531 177.179688 180.964844 177.449219 180.308594 C 177.722656 179.648438 178.054688 179.023438 178.449219 178.429688 C 178.84375 177.839844 179.292969 177.289062 179.792969 176.785156 C 180.296875 176.28125 180.84375 175.832031 181.433594 175.4375 C 182.023438 175.039062 182.648438 174.707031 183.304688 174.433594 C 183.960938 174.160156 184.636719 173.953125 185.332031 173.816406 C 186.027344 173.675781 186.730469 173.605469 187.441406 173.605469 Z M 187.441406 196.191406 C 188.449219 196.191406 189.457031 196.171875 190.464844 196.136719 C 197.613281 195.859375 203.976562 194.59375 209.28125 192.523438 C 207.828125 194.847656 204.722656 198.011719 200.386719 200.40625 C 199.402344 200.960938 198.390625 201.453125 197.34375 201.878906 C 196.296875 202.300781 195.226562 202.660156 194.132812 202.945312 C 193.042969 203.234375 191.933594 203.449219 190.816406 203.59375 C 189.695312 203.738281 188.570312 203.8125 187.441406 203.8125 C 186.3125 203.8125 185.1875 203.738281 184.066406 203.59375 C 182.949219 203.449219 181.84375 203.234375 180.75 202.945312 C 179.65625 202.660156 178.589844 202.300781 177.542969 201.878906 C 176.496094 201.453125 175.480469 200.960938 174.496094 200.40625 C 170.160156 198.011719 167.054688 194.847656 165.601562 192.523438 C 170.90625 194.59375 177.269531 195.859375 184.421875 196.136719 C 185.425781 196.171875 186.433594 196.191406 187.441406 196.191406 Z M 187.441406 204.6875 C 182.683594 204.667969 178.230469 203.496094 174.074219 201.171875 C 168.980469 198.355469 165.503906 194.464844 164.3125 191.992188 C 163.195312 191.515625 162.128906 190.996094 161.117188 190.445312 C 154.308594 186.71875 149.941406 181.378906 148.871094 174.972656 C 147.695312 167.929688 150.488281 160.160156 153.125 152.839844 C 155.832031 145.328125 158.363281 138.292969 156.132812 133.230469 C 156.101562 133.160156 156.089844 133.089844 156.097656 133.011719 C 156.109375 132.894531 156.160156 132.796875 156.253906 132.71875 C 156.34375 132.640625 156.449219 132.609375 156.570312 132.617188 C 158.078125 132.757812 162.882812 133.792969 167.363281 136.652344 C 169.847656 138.234375 172.242188 140.378906 173.9375 143.242188 C 177.117188 137.171875 181.417969 130.554688 187.09375 123.433594 L 187.171875 123.355469 C 187.351562 123.210938 187.53125 123.210938 187.710938 123.355469 L 187.789062 123.433594 C 193.464844 130.554688 197.765625 137.171875 200.949219 143.242188 C 202.640625 140.378906 205.035156 138.234375 207.519531 136.652344 C 212 133.796875 216.808594 132.757812 218.3125 132.617188 C 218.433594 132.609375 218.539062 132.640625 218.632812 132.71875 C 218.722656 132.796875 218.773438 132.894531 218.785156 133.011719 C 218.792969 133.089844 218.78125 133.160156 218.75 133.230469 C 216.523438 138.292969 219.054688 145.328125 221.757812 152.839844 C 224.394531 160.160156 227.191406 167.929688 226.011719 174.972656 C 224.941406 181.378906 220.574219 186.722656 213.765625 190.445312 C 212.753906 190.996094 211.6875 191.515625 210.570312 191.996094 C 209.378906 194.46875 205.902344 198.359375 200.808594 201.171875 C 196.652344 203.496094 192.199219 204.667969 187.441406 204.6875 Z M 187.441406 124.394531 C 192.886719 131.273438 197.039062 137.671875 200.128906 143.550781 C 200.421875 144.109375 200.707031 144.671875 200.992188 145.234375 C 201.542969 146.339844 202.058594 147.425781 202.535156 148.492188 C 206.355469 157.035156 207.84375 164.335938 207.84375 170.265625 C 207.84375 175.042969 206.910156 179.226562 205.320312 182.734375 C 204.851562 183.777344 204.3125 184.777344 203.703125 185.738281 C 204.015625 185.058594 204.285156 184.359375 204.511719 183.644531 C 204.734375 182.929688 204.914062 182.203125 205.050781 181.464844 C 205.183594 180.726562 205.273438 179.980469 205.3125 179.234375 C 205.355469 178.484375 205.351562 177.734375 205.296875 176.988281 C 205.246094 176.238281 205.148438 175.496094 205.003906 174.757812 C 204.859375 174.023438 204.667969 173.300781 204.433594 172.585938 C 204.199219 171.875 203.921875 171.179688 203.601562 170.503906 C 203.277344 169.824219 202.914062 169.171875 202.511719 168.539062 C 202.109375 167.90625 201.667969 167.304688 201.191406 166.726562 C 200.710938 166.148438 200.199219 165.605469 199.652344 165.09375 C 199.105469 164.582031 198.527344 164.105469 197.921875 163.667969 C 197.316406 163.226562 196.6875 162.828125 196.03125 162.46875 C 195.375 162.109375 194.699219 161.789062 194.003906 161.515625 C 193.308594 161.242188 192.597656 161.011719 191.875 160.824219 C 191.148438 160.640625 190.417969 160.5 189.675781 160.40625 C 188.933594 160.3125 188.1875 160.265625 187.441406 160.265625 C 186.691406 160.265625 185.949219 160.3125 185.207031 160.40625 C 184.464844 160.5 183.734375 160.640625 183.007812 160.824219 C 182.285156 161.011719 181.574219 161.242188 180.878906 161.515625 C 180.183594 161.789062 179.507812 162.109375 178.851562 162.46875 C 178.195312 162.828125 177.566406 163.226562 176.957031 163.667969 C 176.351562 164.105469 175.777344 164.582031 175.230469 165.09375 C 174.683594 165.605469 174.171875 166.148438 173.691406 166.726562 C 173.214844 167.304688 172.773438 167.90625 172.367188 168.539062 C 171.964844 169.171875 171.601562 169.824219 171.28125 170.503906 C 170.960938 171.179688 170.683594 171.875 170.445312 172.585938 C 170.210938 173.300781 170.023438 174.023438 169.878906 174.757812 C 169.734375 175.496094 169.636719 176.238281 169.582031 176.988281 C 169.53125 177.734375 169.527344 178.484375 169.566406 179.234375 C 169.609375 179.980469 169.695312 180.726562 169.832031 181.464844 C 169.964844 182.203125 170.144531 182.929688 170.371094 183.644531 C 170.597656 184.359375 170.863281 185.058594 171.175781 185.738281 C 170.566406 184.777344 170.027344 183.777344 169.558594 182.734375 C 167.972656 179.226562 167.035156 175.042969 167.035156 170.265625 C 167.035156 164.335938 168.523438 157.035156 172.347656 148.492188 C 172.824219 147.425781 173.339844 146.339844 173.890625 145.234375 C 174.171875 144.671875 174.460938 144.109375 174.753906 143.550781 C 177.84375 137.671875 181.996094 131.273438 187.441406 124.394531 Z M 187.441406 139.609375 C 187.265625 139.609375 187.136719 139.6875 187.058594 139.84375 C 187.046875 139.863281 183.222656 147.054688 183.222656 149.261719 C 183.222656 149.539062 183.25 149.8125 183.304688 150.085938 C 183.355469 150.359375 183.4375 150.625 183.542969 150.882812 C 183.648438 151.136719 183.78125 151.382812 183.933594 151.613281 C 184.085938 151.84375 184.261719 152.058594 184.457031 152.253906 C 184.652344 152.453125 184.867188 152.628906 185.097656 152.78125 C 185.328125 152.9375 185.570312 153.066406 185.828125 153.171875 C 186.082031 153.28125 186.347656 153.359375 186.617188 153.414062 C 186.890625 153.46875 187.164062 153.496094 187.441406 153.496094 C 187.71875 153.496094 187.992188 153.46875 188.265625 153.414062 C 188.535156 153.359375 188.800781 153.28125 189.054688 153.171875 C 189.3125 153.066406 189.554688 152.9375 189.785156 152.78125 C 190.015625 152.628906 190.230469 152.453125 190.425781 152.253906 C 190.621094 152.058594 190.796875 151.84375 190.949219 151.613281 C 191.105469 151.382812 191.234375 151.136719 191.339844 150.882812 C 191.445312 150.625 191.527344 150.359375 191.582031 150.085938 C 191.632812 149.8125 191.660156 149.539062 191.660156 149.261719 C 191.660156 147.054688 187.835938 139.863281 187.828125 139.84375 C 187.746094 139.6875 187.617188 139.609375 187.441406 139.609375 Z M 187.441406 152.617188 C 187.886719 152.617188 188.3125 152.535156 188.722656 152.363281 C 189.132812 152.195312 189.496094 151.949219 189.808594 151.636719 C 190.125 151.320312 190.363281 150.957031 190.535156 150.546875 C 190.703125 150.132812 190.789062 149.703125 190.789062 149.257812 C 190.789062 147.664062 188.394531 142.84375 187.441406 140.984375 C 186.488281 142.84375 184.09375 147.664062 184.09375 149.257812 C 184.09375 149.703125 184.179688 150.132812 184.347656 150.546875 C 184.519531 150.957031 184.761719 151.320312 185.074219 151.636719 C 185.386719 151.953125 185.75 152.195312 186.160156 152.363281 C 186.570312 152.535156 186.996094 152.621094 187.441406 152.617188 Z M 223.949219 162.207031 C 221.582031 162.058594 218.03125 163.15625 214.867188 164.988281 C 212.324219 166.453125 210.007812 168.402344 208.71875 170.570312 L 208.71875 170.265625 C 208.71875 164.230469 207.207031 156.804688 203.328125 148.136719 C 202.75 146.839844 202.113281 145.515625 201.425781 144.164062 C 203.050781 141.195312 205.46875 138.996094 207.988281 137.390625 C 210.976562 135.507812 214.207031 134.238281 217.675781 133.585938 C 215.808594 138.878906 218.292969 145.78125 220.941406 153.136719 C 222.011719 156.113281 223.109375 159.167969 223.949219 162.207031 Z M 205.335938 184.675781 C 207.066406 181.894531 210.742188 179.476562 214.613281 178.097656 C 218.242188 176.808594 222.015625 176.4375 224.46875 177.550781 C 222.792969 182.480469 218.921875 186.632812 213.351562 189.675781 C 208.160156 192.515625 201.5 194.394531 193.765625 195.054688 C 197.121094 193.824219 200.242188 191.617188 202.757812 188.542969 C 203.738281 187.339844 204.597656 186.046875 205.335938 184.675781 Z M 224.726562 176.714844 C 224.90625 176.09375 225.046875 175.464844 225.152344 174.828125 C 225.777344 171.101562 225.234375 167.125 224.191406 163.105469 C 222.019531 162.832031 218.480469 163.90625 215.296875 165.742188 C 212.011719 167.640625 209.132812 170.347656 208.597656 173.210938 C 208.375 176.144531 207.734375 178.988281 206.683594 181.738281 C 208.707031 179.863281 211.46875 178.289062 214.324219 177.273438 C 218.09375 175.933594 222.054688 175.554688 224.726562 176.714844 Z M 150.15625 176.714844 C 152.828125 175.554688 156.789062 175.933594 160.5625 177.273438 C 163.414062 178.289062 166.175781 179.863281 168.199219 181.738281 C 167.148438 178.988281 166.511719 176.144531 166.285156 173.210938 C 165.75 170.347656 162.871094 167.640625 159.585938 165.742188 C 156.402344 163.90625 152.863281 162.832031 150.691406 163.105469 C 149.648438 167.125 149.105469 171.101562 149.730469 174.828125 C 149.835938 175.464844 149.980469 176.09375 150.15625 176.714844 Z M 169.550781 184.675781 C 170.285156 186.046875 171.144531 187.339844 172.125 188.542969 C 174.640625 191.617188 177.761719 193.824219 181.117188 195.054688 C 173.382812 194.394531 166.722656 192.515625 161.53125 189.675781 C 155.960938 186.632812 152.089844 182.480469 150.414062 177.554688 C 152.867188 176.4375 156.640625 176.808594 160.269531 178.101562 C 164.140625 179.476562 167.816406 181.894531 169.546875 184.675781 Z M 150.933594 162.207031 C 151.773438 159.167969 152.871094 156.113281 153.941406 153.136719 C 156.589844 145.785156 159.074219 138.882812 157.207031 133.585938 C 160.675781 134.242188 163.90625 135.507812 166.894531 137.390625 C 169.414062 138.996094 171.832031 141.199219 173.457031 144.167969 C 172.769531 145.515625 172.132812 146.839844 171.554688 148.136719 C 167.675781 156.808594 166.164062 164.230469 166.164062 170.265625 L 166.167969 170.570312 C 164.875 168.402344 162.558594 166.457031 160.019531 164.988281 C 156.851562 163.15625 153.300781 162.058594 150.933594 162.207031 Z M 150.933594 162.207031 " fill-opacity="1" fill-rule="evenodd"/></g><g fill="#000000" fill-opacity="1"><g transform="translate(63.694116, 242.752513)"><g><path d="M 16.71875 -6.792969 C 16.71875 -3.046875 14.460938 -0.613281 9.59375 -0.613281 C 4.375 -0.613281 2.222656 -5.515625 1.925781 -6.617188 L 0.4375 -4.203125 C 0.980469 -3.222656 3.449219 0 9.574219 0 C 15.683594 0 19.519531 -2.011719 19.519531 -7.089844 C 19.519531 -15.84375 3.921875 -12.5 3.921875 -19.519531 C 3.921875 -23.230469 7.054688 -24.4375 9.46875 -24.4375 C 15.84375 -24.4375 16.824219 -19.414062 16.824219 -19.414062 L 17.523438 -23.265625 C 17.523438 -23.265625 14.125 -25.085938 9.734375 -25.085938 C 2.695312 -25.085938 1.699219 -20.480469 1.699219 -19.5 C 1.699219 -10.46875 16.71875 -14.109375 16.71875 -6.792969 Z M 16.71875 -6.792969 "/></g></g></g><g fill="#000000" fill-opacity="1"><g transform="translate(85.14502, 242.752513)"><g><path d="M 18.449219 -25.101562 L 1.15625 -25.101562 L 0.4375 -21.757812 C 0.4375 -21.757812 1.3125 -24.210938 8.507812 -24.402344 C 8.648438 -24.035156 8.769531 -23.472656 8.769531 -22.652344 L 8.769531 -2.328125 C 8.769531 -0.246094 8.035156 -0.015625 8.035156 -0.015625 L 11.625 -0.015625 C 11.625 -0.015625 10.90625 -0.226562 10.90625 -2.3125 L 10.90625 -22.652344 C 10.90625 -23.472656 11.011719 -24.035156 11.152344 -24.402344 C 18.292969 -24.191406 19.167969 -21.757812 19.167969 -21.757812 Z M 18.449219 -25.101562 "/></g></g></g><g fill="#000000" fill-opacity="1"><g transform="translate(106.245997, 242.752513)"><g><path d="M 1.171875 -8.316406 C 1.242188 -2.75 4.375 0 10.34375 0 C 15.472656 0 17.734375 -2.644531 17.75 -9.363281 L 17.75 -22.792969 C 17.75 -24.875 18.484375 -25.101562 18.484375 -25.101562 L 16.628906 -25.101562 C 16.628906 -25.101562 17.347656 -24.855469 17.347656 -22.773438 L 17.347656 -9.574219 C 17.347656 -3.117188 14.617188 -0.839844 10.34375 -0.839844 C 5.480469 -0.839844 3.308594 -4.167969 3.308594 -9.03125 C 3.308594 -23.507812 3.308594 -22.652344 3.308594 -22.652344 C 3.308594 -24.734375 4.027344 -25.101562 4.027344 -25.101562 L 0.4375 -25.101562 C 0.4375 -25.101562 1.171875 -24.734375 1.171875 -22.652344 Z M 1.171875 -8.316406 "/></g></g></g><g fill="#000000" fill-opacity="1"><g transform="translate(126.664633, 242.752513)"><g><path d="M 6.023438 -25.085938 C 5.480469 -25.085938 0.4375 -25.085938 0.4375 -25.085938 C 0.4375 -25.085938 1.171875 -24.855469 1.171875 -22.773438 L 1.171875 -2.449219 C 1.171875 -0.367188 0.4375 -0.015625 0.4375 -0.015625 C 0.4375 -0.015625 5.671875 -0.015625 6.160156 -0.015625 C 15.335938 -0.015625 19.238281 -5.636719 19.238281 -12.535156 C 19.238281 -19.429688 15.738281 -25.085938 6.023438 -25.085938 Z M 5.496094 -0.789062 L 3.519531 -0.789062 C 3.394531 -1.136719 3.308594 -1.679688 3.308594 -2.449219 L 3.308594 -22.792969 C 3.308594 -23.5625 3.394531 -24.070312 3.519531 -24.417969 L 5.496094 -24.417969 C 14.667969 -24.417969 17.015625 -19.0625 17.015625 -12.585938 C 17.015625 -6.089844 14.5625 -0.789062 5.496094 -0.789062 Z M 5.496094 -0.789062 "/></g></g></g><g fill="#000000" fill-opacity="1"><g transform="translate(147.835589, 242.752513)"><g><path d="M 0.4375 -0.015625 L 4.027344 -0.015625 C 4.027344 -0.015625 3.308594 -0.367188 3.308594 -2.449219 L 3.308594 -22.792969 C 3.308594 -24.875 4.027344 -25.101562 4.027344 -25.101562 L 0.4375 -25.101562 C 0.4375 -25.101562 1.171875 -24.855469 1.171875 -22.773438 L 1.171875 -2.449219 C 1.171875 -0.367188 0.4375 -0.015625 0.4375 -0.015625 Z M 0.4375 -0.015625 "/></g></g></g><g fill="#000000" fill-opacity="1"><g transform="translate(153.802486, 242.752513)"><g><path d="M 11.484375 -25.03125 C 5.390625 -25.03125 0.4375 -19.429688 0.4375 -12.535156 C 0.4375 -5.636719 5.390625 -0.0507812 11.484375 -0.0507812 C 17.574219 -0.0507812 22.527344 -5.636719 22.527344 -12.535156 C 22.527344 -19.429688 17.574219 -25.03125 11.484375 -25.03125 Z M 11.484375 -0.824219 C 6.617188 -0.824219 2.660156 -6.089844 2.660156 -12.585938 C 2.660156 -19.0625 6.617188 -24.347656 11.484375 -24.347656 C 16.351562 -24.347656 20.304688 -19.0625 20.304688 -12.585938 C 20.304688 -6.089844 16.351562 -0.824219 11.484375 -0.824219 Z M 11.484375 -0.824219 "/></g></g></g><g fill="#000000" fill-opacity="1"><g transform="translate(178.262709, 242.752513)"><g/></g></g><g fill="#000000" fill-opacity="1"><g transform="translate(188.516145, 242.752513)"><g><path d="M 16.71875 -6.792969 C 16.71875 -3.046875 14.460938 -0.613281 9.59375 -0.613281 C 4.375 -0.613281 2.222656 -5.515625 1.925781 -6.617188 L 0.4375 -4.203125 C 0.980469 -3.222656 3.449219 0 9.574219 0 C 15.683594 0 19.519531 -2.011719 19.519531 -7.089844 C 19.519531 -15.84375 3.921875 -12.5 3.921875 -19.519531 C 3.921875 -23.230469 7.054688 -24.4375 9.46875 -24.4375 C 15.84375 -24.4375 16.824219 -19.414062 16.824219 -19.414062 L 17.523438 -23.265625 C 17.523438 -23.265625 14.125 -25.085938 9.734375 -25.085938 C 2.695312 -25.085938 1.699219 -20.480469 1.699219 -19.5 C 1.699219 -10.46875 16.71875 -14.109375 16.71875 -6.792969 Z M 16.71875 -6.792969 "/></g></g></g><g fill="#000000" fill-opacity="1"><g transform="translate(209.967053, 242.752513)"><g><path d="M 9.644531 -12.253906 L 9.644531 -16.382812 C 9.644531 -16.382812 8.945312 -14.617188 5.445312 -14.617188 L 3.308594 -14.617188 L 3.308594 -22.792969 C 3.308594 -23.542969 3.394531 -24.070312 3.519531 -24.402344 L 7.808594 -24.402344 C 16 -24.402344 16.960938 -21.757812 16.960938 -21.757812 L 16.246094 -25.101562 L 0.4375 -25.101562 C 0.4375 -25.101562 1.171875 -24.855469 1.171875 -22.773438 L 1.171875 -2.449219 C 1.171875 -0.367188 0.4375 -0.015625 0.4375 -0.015625 L 16.246094 -0.015625 L 16.960938 -3.34375 C 16.960938 -3.34375 16 -0.699219 7.808594 -0.699219 L 3.554688 -0.699219 C 3.414062 -1.066406 3.308594 -1.628906 3.308594 -2.449219 L 3.308594 -14.023438 L 5.445312 -14.023438 C 8.945312 -14.023438 9.644531 -12.253906 9.644531 -12.253906 Z M 9.644531 -12.253906 "/></g></g></g><g fill="#000000" fill-opacity="1"><g transform="translate(228.863536, 242.752513)"><g><path d="M 10.992188 -0.015625 L 19.851562 -22.652344 C 20.671875 -24.734375 21.53125 -25.101562 21.53125 -25.101562 L 19.675781 -25.101562 C 19.675781 -25.101562 20.269531 -24.734375 19.449219 -22.652344 L 11.851562 -3.238281 L 4.253906 -22.652344 C 3.449219 -24.734375 4.027344 -25.101562 4.027344 -25.101562 L 0.4375 -25.101562 C 0.4375 -25.101562 1.3125 -24.734375 2.117188 -22.652344 Z M 10.992188 -0.015625 "/></g></g></g><g fill="#000000" fill-opacity="1"><g transform="translate(252.326487, 242.752513)"><g><path d="M 9.644531 -12.253906 L 9.644531 -16.382812 C 9.644531 -16.382812 8.945312 -14.617188 5.445312 -14.617188 L 3.308594 -14.617188 L 3.308594 -22.792969 C 3.308594 -23.542969 3.394531 -24.070312 3.519531 -24.402344 L 7.808594 -24.402344 C 16 -24.402344 16.960938 -21.757812 16.960938 -21.757812 L 16.246094 -25.101562 L 0.4375 -25.101562 C 0.4375 -25.101562 1.171875 -24.855469 1.171875 -22.773438 L 1.171875 -2.449219 C 1.171875 -0.367188 0.4375 -0.015625 0.4375 -0.015625 L 16.246094 -0.015625 L 16.960938 -3.34375 C 16.960938 -3.34375 16 -0.699219 7.808594 -0.699219 L 3.554688 -0.699219 C 3.414062 -1.066406 3.308594 -1.628906 3.308594 -2.449219 L 3.308594 -14.023438 L 5.445312 -14.023438 C 8.945312 -14.023438 9.644531 -12.253906 9.644531 -12.253906 Z M 9.644531 -12.253906 "/></g></g></g><g fill="#000000" fill-opacity="1"><g transform="translate(271.222958, 242.752513)"><g><path d="M 17.800781 -2.90625 L 3.289062 -25.085938 L 0.4375 -25.085938 C 0.4375 -25.085938 1.277344 -24.558594 1.277344 -22.773438 L 1.277344 -2.449219 C 1.277344 -0.367188 0.558594 -0.015625 0.558594 -0.015625 L 2.414062 -0.015625 C 2.414062 -0.015625 1.679688 -0.367188 1.679688 -2.449219 L 1.679688 -22.792969 C 1.679688 -23.210938 1.714844 -23.5625 1.769531 -23.84375 C 1.960938 -23.5625 17.800781 -0.015625 17.800781 -0.015625 L 18.1875 -0.015625 L 18.207031 -22.792969 C 18.207031 -24.875 18.941406 -25.085938 18.941406 -25.085938 L 17.085938 -25.085938 C 17.085938 -25.085938 17.800781 -24.855469 17.800781 -22.773438 Z M 17.800781 -2.90625 "/></g></g></g><g fill="#000000" fill-opacity="1"><g transform="translate(292.096477, 242.752513)"><g><path d="M 9.433594 -18.710938 C 7.054688 -18.710938 4.394531 -17.699219 2.851562 -15.613281 C 2.851562 -24.699219 9.453125 -24.402344 9.453125 -24.402344 C 13.304688 -24.402344 14.230469 -20.570312 14.230469 -20.570312 L 15.703125 -22.039062 C 14.285156 -24.699219 10.941406 -25.085938 9.734375 -25.085938 C 3.746094 -25.085938 0.4375 -20.199219 0.4375 -10.714844 C 0.4375 -3.222656 4.464844 0.015625 9.433594 0.015625 C 14.40625 0.015625 18.433594 -4.183594 18.433594 -9.347656 C 18.433594 -14.511719 14.40625 -18.710938 9.433594 -18.710938 Z M 9.433594 -0.789062 C 5.6875 -0.789062 2.644531 -3.957031 2.644531 -10.152344 C 2.644531 -14.828125 5.6875 -17.941406 9.433594 -17.941406 C 13.179688 -17.941406 16.226562 -14.125 16.226562 -9.433594 C 16.226562 -4.742188 13.179688 -0.789062 9.433594 -0.789062 Z M 9.433594 -0.789062 "/></g></g></g><g fill="#000000" fill-opacity="1"><g transform="translate(141.084736, 275.752511)"><g><path d="M 9.398438 -11.589844 L 9.398438 -2.328125 C 9.398438 -0.246094 8.664062 -0.015625 8.664062 -0.015625 L 12.253906 -0.015625 C 12.253906 -0.015625 11.519531 -0.226562 11.519531 -2.3125 L 11.519531 -11.660156 L 18.292969 -22.792969 C 19.570312 -24.875 20.429688 -25.101562 20.429688 -25.101562 L 18.574219 -25.101562 C 18.574219 -25.101562 19.152344 -24.855469 17.890625 -22.773438 L 11.308594 -11.957031 L 4.796875 -22.652344 C 3.519531 -24.734375 4.027344 -25.101562 4.027344 -25.101562 L 0.4375 -25.101562 C 0.4375 -25.101562 1.382812 -24.734375 2.660156 -22.652344 Z M 9.398438 -11.589844 "/></g></g></g><g fill="#000000" fill-opacity="1"><g transform="translate(163.445433, 275.752511)"><g><path d="M 11.484375 -25.03125 C 5.390625 -25.03125 0.4375 -19.429688 0.4375 -12.535156 C 0.4375 -5.636719 5.390625 -0.0507812 11.484375 -0.0507812 C 17.574219 -0.0507812 22.527344 -5.636719 22.527344 -12.535156 C 22.527344 -19.429688 17.574219 -25.03125 11.484375 -25.03125 Z M 11.484375 -0.824219 C 6.617188 -0.824219 2.660156 -6.089844 2.660156 -12.585938 C 2.660156 -19.0625 6.617188 -24.347656 11.484375 -24.347656 C 16.351562 -24.347656 20.304688 -19.0625 20.304688 -12.585938 C 20.304688 -6.089844 16.351562 -0.824219 11.484375 -0.824219 Z M 11.484375 -0.824219 "/></g></g></g><g fill="#000000" fill-opacity="1"><g transform="translate(187.905655, 275.752511)"><g><path d="M 18.011719 -1.503906 L 21.777344 -0.015625 C 21.777344 -0.015625 21.058594 -0.367188 21.058594 -2.449219 L 21.058594 -8.417969 C 21.058594 -10.503906 21.777344 -10.730469 21.777344 -10.730469 L 18.1875 -10.730469 C 18.1875 -10.730469 18.921875 -10.484375 18.921875 -8.402344 L 18.921875 -4.796875 C 18.816406 -2.414062 15.703125 -0.824219 11.484375 -0.824219 C 6.617188 -0.824219 2.660156 -4.5 2.660156 -12.585938 C 2.660156 -20.65625 7.789062 -24.417969 11.484375 -24.417969 C 15.964844 -24.417969 17.765625 -23.246094 20.042969 -19.535156 L 21.234375 -22.757812 C 19.273438 -22.230469 18.308594 -25.101562 12.21875 -25.101562 C 5.320312 -25.101562 0.4375 -20.5 0.4375 -12.535156 C 0.4375 -4.585938 5.390625 -0.015625 11.484375 -0.015625 C 14.039062 -0.015625 16.246094 -0.488281 18.011719 -1.503906 Z M 18.011719 -1.503906 "/></g></g></g><g fill="#000000" fill-opacity="1"><g transform="translate(211.613538, 275.752511)"><g><path d="M 17.941406 -0.015625 L 21.53125 -0.015625 C 21.53125 -0.015625 20.671875 -0.367188 19.851562 -2.449219 L 10.992188 -25.085938 L 2.117188 -2.449219 C 1.3125 -0.367188 0.4375 -0.015625 0.4375 -0.015625 L 2.292969 -0.015625 C 2.292969 -0.015625 1.714844 -0.367188 2.519531 -2.449219 L 4.535156 -7.5625 L 15.71875 -7.5625 L 17.714844 -2.449219 C 18.539062 -0.367188 17.941406 -0.015625 17.941406 -0.015625 Z M 4.691406 -7.980469 L 10.117188 -21.863281 L 15.5625 -7.980469 Z M 4.691406 -7.980469 "/></g></g></g></svg>